{
    "asset" : {
        "generator" : "Khronos glTF Blender I/O v1.4.40",
        "version" : "2.0"
    },
    "scene" : 0,
    "scenes" : [
        {
            "name" : "Scene",
            "nodes" : [
                10
            ]
        }
    ],
    "nodes" : [
        {
            "mesh" : 0,
            "name" : "Icosphere_0"
        },
        {
            "children" : [
                0
            ],
            "name" : "Icosphere",
            "rotation" : [
                -0.7071068286895752,
                0,
                0,
                0.7071068286895752
            ],
            "scale" : [
                0.17847000062465668,
                0.06407999992370605,
                0.06407999992370605
            ],
            "translation" : [
                -9.969229698181152,
                1.452679991722107,
                0.3499999940395355
            ]
        },
        {
            "mesh" : 1,
            "name" : "Icosphere.001_0"
        },
        {
            "children" : [
                2
            ],
            "name" : "Icosphere.001",
            "rotation" : [
                -0.7071068286895752,
                0,
                0,
                0.7071068286895752
            ],
            "scale" : [
                0.17847000062465668,
                0.06407999992370605,
                0.06407999992370605
            ],
            "translation" : [
                -9.969229698181152,
                1.452679991722107,
                -0.3499999940395355
            ]
        },
        {
            "mesh" : 2,
            "name" : "Plane_0"
        },
        {
            "mesh" : 3,
            "name" : "Plane_1"
        },
        {
            "mesh" : 4,
            "name" : "Plane_2"
        },
        {
            "mesh" : 5,
            "name" : "Plane_3"
        },
        {
            "children" : [
                1,
                3,
                4,
                5,
                6,
                7
            ],
            "name" : "Plane",
            "rotation" : [
                0.7071068286895752,
                0,
                0,
                0.7071068286895752
            ],
            "scale" : [
                0.512969970703125,
                1.4285800457000732,
                1.4285800457000732
            ],
            "translation" : [
                1.4628100395202637,
                0,
                0.5440199971199036
            ]
        },
        {
            "children" : [
                8
            ],
            "name" : "Root"
        },
        {
            "children" : [
                9
            ],
            "name" : "Sketchfab_model",
            "rotation" : [
                -0.7070837020874023,
                -0.005717902909964323,
                0.005717902909964323,
                0.7070837020874023
            ],
            "scale" : [
                0.5,
                0.5,
                0.5
            ],
            "translation" : [
                0,
                1.5860308408737183,
                0
            ]
        }
    ],
    "materials" : [
        {
            "doubleSided" : true,
            "name" : "Goat_Black",
            "pbrMetallicRoughness" : {
                "baseColorFactor" : [
                    0,
                    0,
                    0,
                    1
                ],
                "metallicFactor" : 0,
                "roughnessFactor" : 0.6000000238418579
            }
        },
        {
            "doubleSided" : true,
            "name" : "Material.002",
            "pbrMetallicRoughness" : {
                "baseColorFactor" : [
                    0,
                    0,
                    0,
                    1
                ],
                "metallicFactor" : 0,
                "roughnessFactor" : 0.6000000238418579
            }
        },
        {
            "doubleSided" : true,
            "name" : "Goat",
            "pbrMetallicRoughness" : {
                "baseColorFactor" : [
                    0.5595998167991638,
                    0.2995079755783081,
                    0.1391027271747589,
                    1
                ],
                "metallicFactor" : 0,
                "roughnessFactor" : 0.6000000238418579
            }
        },
        {
            "doubleSided" : true,
            "name" : "Goat_Horn",
            "pbrMetallicRoughness" : {
                "baseColorFactor" : [
                    0.7742710113525391,
                    0.6347869634628296,
                    0.4792827069759369,
                    1
                ],
                "metallicFactor" : 0,
                "roughnessFactor" : 0.6000000238418579
            }
        },
        {
            "doubleSided" : true,
            "name" : "Goat_Claws",
            "pbrMetallicRoughness" : {
                "baseColorFactor" : [
                    0.05780237540602684,
                    0.05780237540602684,
                    0.05780237540602684,
                    1
                ],
                "metallicFactor" : 0,
                "roughnessFactor" : 0.6000000238418579
            }
        }
    ],
    "meshes" : [
        {
            "name" : "Icosphere_0",
            "primitives" : [
                {
                    "attributes" : {
                        "POSITION" : 0,
                        "NORMAL" : 1
                    },
                    "indices" : 2,
                    "material" : 0
                }
            ]
        },
        {
            "name" : "Icosphere.001_0",
            "primitives" : [
                {
                    "attributes" : {
                        "POSITION" : 3,
                        "NORMAL" : 4
                    },
                    "indices" : 2,
                    "material" : 1
                }
            ]
        },
        {
            "name" : "Plane_0",
            "primitives" : [
                {
                    "attributes" : {
                        "POSITION" : 5,
                        "NORMAL" : 6
                    },
                    "indices" : 7,
                    "material" : 2
                }
            ]
        },
        {
            "name" : "Plane_1",
            "primitives" : [
                {
                    "attributes" : {
                        "POSITION" : 8,
                        "NORMAL" : 9
                    },
                    "indices" : 10,
                    "material" : 3
                }
            ]
        },
        {
            "name" : "Plane_2",
            "primitives" : [
                {
                    "attributes" : {
                        "POSITION" : 11,
                        "NORMAL" : 12
                    },
                    "indices" : 13,
                    "material" : 4
                }
            ]
        },
        {
            "name" : "Plane_3",
            "primitives" : [
                {
                    "attributes" : {
                        "POSITION" : 14,
                        "NORMAL" : 15
                    },
                    "indices" : 16,
                    "material" : 0
                }
            ]
        }
    ],
    "accessors" : [
        {
            "bufferView" : 0,
            "componentType" : 5126,
            "count" : 240,
            "max" : [
                0.9510599970817566,
                1,
                1
            ],
            "min" : [
                -0.9510599970817566,
                -1,
                -1
            ],
            "type" : "VEC3"
        },
        {
            "bufferView" : 1,
            "componentType" : 5126,
            "count" : 240,
            "type" : "VEC3"
        },
        {
            "bufferView" : 2,
            "componentType" : 5123,
            "count" : 240,
            "type" : "SCALAR"
        },
        {
            "bufferView" : 3,
            "componentType" : 5126,
            "count" : 240,
            "max" : [
                0.9510599970817566,
                1,
                1
            ],
            "min" : [
                -0.9510599970817566,
                -1,
                -1
            ],
            "type" : "VEC3"
        },
        {
            "bufferView" : 4,
            "componentType" : 5126,
            "count" : 240,
            "type" : "VEC3"
        },
        {
            "bufferView" : 5,
            "componentType" : 5126,
            "count" : 2761,
            "max" : [
                3.7550699710845947,
                1.9444199800491333,
                0.8723400235176086
            ],
            "min" : [
                -11.774829864501953,
                -2.492140054702759,
                -0.8723400235176086
            ],
            "type" : "VEC3"
        },
        {
            "bufferView" : 6,
            "componentType" : 5126,
            "count" : 2761,
            "type" : "VEC3"
        },
        {
            "bufferView" : 7,
            "componentType" : 5123,
            "count" : 3462,
            "type" : "SCALAR"
        },
        {
            "bufferView" : 8,
            "componentType" : 5126,
            "count" : 388,
            "max" : [
                -6.746960163116455,
                2.2967000007629395,
                0.7208999991416931
            ],
            "min" : [
                -9.455060005187988,
                1.6190400123596191,
                -0.7208999991416931
            ],
            "type" : "VEC3"
        },
        {
            "bufferView" : 9,
            "componentType" : 5126,
            "count" : 388,
            "type" : "VEC3"
        },
        {
            "bufferView" : 10,
            "componentType" : 5123,
            "count" : 516,
            "type" : "SCALAR"
        },
        {
            "bufferView" : 11,
            "componentType" : 5126,
            "count" : 312,
            "max" : [
                2.5026299953460693,
                -2.3803000450134277,
                0.7789199948310852
            ],
            "min" : [
                -7.3140997886657715,
                -2.6250200271606445,
                -0.7789199948310852
            ],
            "type" : "VEC3"
        },
        {
            "bufferView" : 12,
            "componentType" : 5126,
            "count" : 312,
            "type" : "VEC3"
        },
        {
            "bufferView" : 13,
            "componentType" : 5123,
            "count" : 408,
            "type" : "SCALAR"
        },
        {
            "bufferView" : 14,
            "componentType" : 5126,
            "count" : 6,
            "max" : [
                -11.74806022644043,
                1.0860999822616577,
                0.13447000086307526
            ],
            "min" : [
                -11.774829864501953,
                0.9337000250816345,
                -0.13447000086307526
            ],
            "type" : "VEC3"
        },
        {
            "bufferView" : 15,
            "componentType" : 5126,
            "count" : 6,
            "type" : "VEC3"
        },
        {
            "bufferView" : 16,
            "componentType" : 5123,
            "count" : 6,
            "type" : "SCALAR"
        }
    ],
    "bufferViews" : [
        {
            "buffer" : 0,
            "byteLength" : 2880,
            "byteOffset" : 0
        },
        {
            "buffer" : 0,
            "byteLength" : 2880,
            "byteOffset" : 2880
        },
        {
            "buffer" : 0,
            "byteLength" : 480,
            "byteOffset" : 5760
        },
        {
            "buffer" : 0,
            "byteLength" : 2880,
            "byteOffset" : 6240
        },
        {
            "buffer" : 0,
            "byteLength" : 2880,
            "byteOffset" : 9120
        },
        {
            "buffer" : 0,
            "byteLength" : 33132,
            "byteOffset" : 12000
        },
        {
            "buffer" : 0,
            "byteLength" : 33132,
            "byteOffset" : 45132
        },
        {
            "buffer" : 0,
            "byteLength" : 6924,
            "byteOffset" : 78264
        },
        {
            "buffer" : 0,
            "byteLength" : 4656,
            "byteOffset" : 85188
        },
        {
            "buffer" : 0,
            "byteLength" : 4656,
            "byteOffset" : 89844
        },
        {
            "buffer" : 0,
            "byteLength" : 1032,
            "byteOffset" : 94500
        },
        {
            "buffer" : 0,
            "byteLength" : 3744,
            "byteOffset" : 95532
        },
        {
            "buffer" : 0,
            "byteLength" : 3744,
            "byteOffset" : 99276
        },
        {
            "buffer" : 0,
            "byteLength" : 816,
            "byteOffset" : 103020
        },
        {
            "buffer" : 0,
            "byteLength" : 72,
            "byteOffset" : 103836
        },
        {
            "buffer" : 0,
            "byteLength" : 72,
            "byteOffset" : 103908
        },
        {
            "buffer" : 0,
            "byteLength" : 12,
            "byteOffset" : 103980
        }
    ],
    "buffers" : [
        {
            "byteLength" : 103992,
            "uri" : "data:application/octet-stream;base64,"
        }
    ]
}
