{
    "asset" : {
        "generator" : "Khronos glTF Blender I/O v1.4.40",
        "version" : "2.0"
    },
    "scene" : 0,
    "scenes" : [
        {
            "name" : "Scene",
            "nodes" : [
                6
            ]
        }
    ],
    "nodes" : [
        {
            "mesh" : 0,
            "name" : "Plane_Material.001_0"
        },
        {
            "mesh" : 1,
            "name" : "Plane_Material.002_0"
        },
        {
            "mesh" : 2,
            "name" : "Plane_Material.003_0"
        },
        {
            "children" : [
                0,
                1,
                2
            ],
            "name" : "Plane",
            "rotation" : [
                -0.5000000596046448,
                0.5000000596046448,
                -0.5,
                0.49999991059303284
            ],
            "scale" : [
                37.283077239990234,
                37.283077239990234,
                37.283077239990234
            ],
            "translation" : [
                0,
                174.9024658203125,
                0
            ]
        },
        {
            "children" : [
                3
            ],
            "name" : "RootNode"
        },
        {
            "children" : [
                4
            ],
            "name" : "c905bc928cc44d869497538ece048388.fbx",
            "rotation" : [
                0.7071068286895752,
                0,
                0,
                0.7071068286895752
            ]
        },
        {
            "children" : [
                5
            ],
            "name" : "Sketchfab_model",
            "rotation" : [
                -0.2551476061344147,
                0.6469494700431824,
                0.6594692468643188,
                0.2854059636592865
            ],
            "scale" : [
                0.009999999776482582,
                0.009999999776482582,
                0.009999999776482582
            ]
        }
    ],
    "materials" : [
        {
            "doubleSided" : true,
            "name" : "Material.001",
            "pbrMetallicRoughness" : {
                "baseColorFactor" : [
                    0.800000011920929,
                    0.800000011920929,
                    0.800000011920929,
                    1
                ],
                "metallicFactor" : 0,
                "roughnessFactor" : 0.8211145401000977
            }
        },
        {
            "doubleSided" : true,
            "name" : "Material.002",
            "pbrMetallicRoughness" : {
                "baseColorFactor" : [
                    0.800000011920929,
                    0.1602810025215149,
                    0.013857999816536903,
                    1
                ],
                "metallicFactor" : 0,
                "roughnessFactor" : 0.9361125230789185
            }
        },
        {
            "doubleSided" : true,
            "name" : "Material.003",
            "pbrMetallicRoughness" : {
                "baseColorFactor" : [
                    0.0027319800574332476,
                    0.003540199948474765,
                    0.0063702501356601715,
                    1
                ],
                "metallicFactor" : 0,
                "roughnessFactor" : 0.9992011189460754
            }
        }
    ],
    "meshes" : [
        {
            "name" : "Plane_Material.001_0",
            "primitives" : [
                {
                    "attributes" : {
                        "POSITION" : 0,
                        "NORMAL" : 1,
                        "TEXCOORD_0" : 2
                    },
                    "indices" : 3,
                    "material" : 0
                }
            ]
        },
        {
            "name" : "Plane_Material.002_0",
            "primitives" : [
                {
                    "attributes" : {
                        "POSITION" : 4,
                        "NORMAL" : 5,
                        "TEXCOORD_0" : 6
                    },
                    "indices" : 7,
                    "material" : 1
                }
            ]
        },
        {
            "name" : "Plane_Material.003_0",
            "primitives" : [
                {
                    "attributes" : {
                        "POSITION" : 8,
                        "NORMAL" : 9,
                        "TEXCOORD_0" : 10
                    },
                    "indices" : 11,
                    "material" : 2
                }
            ]
        }
    ],
    "accessors" : [
        {
            "bufferView" : 0,
            "componentType" : 5126,
            "count" : 1581,
            "max" : [
                2.5898194313049316,
                2.307478666305542,
                2.066420793533325
            ],
            "min" : [
                -6.882899761199951,
                -6.078766822814941,
                -2.066420793533325
            ],
            "type" : "VEC3"
        },
        {
            "bufferView" : 1,
            "componentType" : 5126,
            "count" : 1581,
            "type" : "VEC3"
        },
        {
            "bufferView" : 2,
            "componentType" : 5126,
            "count" : 1581,
            "type" : "VEC2"
        },
        {
            "bufferView" : 3,
            "componentType" : 5123,
            "count" : 2244,
            "type" : "SCALAR"
        },
        {
            "bufferView" : 4,
            "componentType" : 5126,
            "count" : 698,
            "max" : [
                4.704573631286621,
                2.7384657859802246,
                1.4442532062530518
            ],
            "min" : [
                -6.56586217880249,
                -1.8759925365447998,
                -1.605441689491272
            ],
            "type" : "VEC3"
        },
        {
            "bufferView" : 5,
            "componentType" : 5126,
            "count" : 698,
            "type" : "VEC3"
        },
        {
            "bufferView" : 6,
            "componentType" : 5126,
            "count" : 698,
            "type" : "VEC2"
        },
        {
            "bufferView" : 7,
            "componentType" : 5123,
            "count" : 1002,
            "type" : "SCALAR"
        },
        {
            "bufferView" : 8,
            "componentType" : 5126,
            "count" : 32,
            "max" : [
                -6.433974742889404,
                1.3726640939712524,
                0.506034255027771
            ],
            "min" : [
                -6.650757312774658,
                1.1809762716293335,
                -0.506034255027771
            ],
            "type" : "VEC3"
        },
        {
            "bufferView" : 9,
            "componentType" : 5126,
            "count" : 32,
            "type" : "VEC3"
        },
        {
            "bufferView" : 10,
            "componentType" : 5126,
            "count" : 32,
            "type" : "VEC2"
        },
        {
            "bufferView" : 11,
            "componentType" : 5123,
            "count" : 48,
            "type" : "SCALAR"
        }
    ],
    "bufferViews" : [
        {
            "buffer" : 0,
            "byteLength" : 18972,
            "byteOffset" : 0
        },
        {
            "buffer" : 0,
            "byteLength" : 18972,
            "byteOffset" : 18972
        },
        {
            "buffer" : 0,
            "byteLength" : 12648,
            "byteOffset" : 37944
        },
        {
            "buffer" : 0,
            "byteLength" : 4488,
            "byteOffset" : 50592
        },
        {
            "buffer" : 0,
            "byteLength" : 8376,
            "byteOffset" : 55080
        },
        {
            "buffer" : 0,
            "byteLength" : 8376,
            "byteOffset" : 63456
        },
        {
            "buffer" : 0,
            "byteLength" : 5584,
            "byteOffset" : 71832
        },
        {
            "buffer" : 0,
            "byteLength" : 2004,
            "byteOffset" : 77416
        },
        {
            "buffer" : 0,
            "byteLength" : 384,
            "byteOffset" : 79420
        },
        {
            "buffer" : 0,
            "byteLength" : 384,
            "byteOffset" : 79804
        },
        {
            "buffer" : 0,
            "byteLength" : 256,
            "byteOffset" : 80188
        },
        {
            "buffer" : 0,
            "byteLength" : 96,
            "byteOffset" : 80444
        }
    ],
    "buffers" : [
        {
            "byteLength" : 80540,
            "uri" : "data:application/octet-stream;base64,"
        }
    ]
}
